<?xml version="1.0" encoding="utf-8"?>
<svg viewBox="2.304 0.768 36.864 34.816" fill="none" xmlns="http://www.w3.org/2000/svg">
  <path d="M 31.165 20.4 C 30.813 20.4 30.445 20.288 30.093 20.207 C 29.38 20.048 28.679 19.838 27.996 19.581 C 27.253 19.31 26.436 19.324 25.703 19.621 C 24.97 19.917 24.373 20.475 24.025 21.187 L 23.673 21.926 C 22.118 21.041 20.682 19.962 19.398 18.714 C 18.154 17.427 17.078 15.986 16.196 14.426 L 16.933 14.089 C 17.643 13.741 18.199 13.141 18.494 12.406 C 18.79 11.671 18.804 10.852 18.534 10.107 C 18.279 9.415 18.071 8.707 17.909 7.987 C 17.829 7.634 17.765 7.264 17.717 6.911 C 17.523 5.78 16.932 4.756 16.052 4.023 C 15.171 3.29 14.058 2.896 12.914 2.913 L 8.095 2.913 C 7.418 2.912 6.749 3.054 6.131 3.331 C 5.513 3.608 4.96 4.013 4.509 4.519 C 4.049 5.038 3.706 5.652 3.504 6.317 C 3.302 6.982 3.246 7.684 3.34 8.373 C 4.211 15.056 7.255 21.265 12.002 26.037 C 16.759 30.798 22.949 33.851 29.613 34.724 C 29.82 34.74 30.029 34.74 30.237 34.724 C 31.417 34.726 32.557 34.291 33.439 33.504 C 33.943 33.051 34.347 32.497 34.623 31.877 C 34.899 31.257 35.041 30.585 35.04 29.907 L 35.04 25.089 C 35.031 23.98 34.641 22.907 33.935 22.053 C 33.229 21.198 32.251 20.615 31.165 20.4 Z M 31.95 30.035 C 31.949 30.259 31.902 30.481 31.811 30.685 C 31.72 30.89 31.587 31.073 31.422 31.223 C 31.246 31.384 31.037 31.503 30.81 31.572 C 30.583 31.642 30.344 31.66 30.109 31.625 C 24.134 30.842 18.582 28.111 14.307 23.853 C 10.028 19.561 7.282 13.973 6.494 7.955 C 6.46 7.719 6.477 7.479 6.547 7.251 C 6.616 7.024 6.735 6.814 6.895 6.638 C 7.046 6.47 7.231 6.336 7.438 6.244 C 7.645 6.153 7.869 6.107 8.095 6.108 L 12.898 6.108 C 13.268 6.099 13.63 6.219 13.922 6.447 C 14.214 6.676 14.418 6.999 14.499 7.361 C 14.499 7.794 14.643 8.244 14.739 8.678 C 14.924 9.519 15.171 10.345 15.476 11.151 L 13.234 12.21 C 12.849 12.388 12.55 12.711 12.402 13.11 C 12.242 13.501 12.242 13.939 12.402 14.33 C 14.706 19.28 18.673 23.26 23.609 25.571 C 23.999 25.732 24.436 25.732 24.826 25.571 C 25.223 25.423 25.545 25.122 25.722 24.736 L 26.731 22.488 C 27.557 22.79 28.402 23.037 29.26 23.226 C 29.677 23.323 30.125 23.403 30.557 23.467 C 30.918 23.549 31.24 23.753 31.468 24.046 C 31.695 24.339 31.815 24.702 31.806 25.073 L 31.95 30.035 Z M 22.504 2.736 C 22.136 2.736 21.752 2.736 21.383 2.736 C 20.959 2.772 20.566 2.976 20.291 3.303 C 20.017 3.63 19.882 4.052 19.919 4.478 C 19.955 4.904 20.158 5.298 20.484 5.574 C 20.809 5.849 21.231 5.984 21.656 5.948 L 22.504 5.948 C 25.052 5.948 27.495 6.963 29.297 8.77 C 31.098 10.577 32.11 13.027 32.11 15.583 C 32.11 15.872 32.11 16.145 32.11 16.434 C 32.075 16.857 32.208 17.278 32.481 17.603 C 32.754 17.928 33.145 18.131 33.567 18.168 L 33.695 18.168 C 34.096 18.17 34.483 18.02 34.779 17.75 C 35.075 17.479 35.26 17.107 35.296 16.707 C 35.296 16.337 35.296 15.952 35.296 15.583 C 35.296 12.178 33.949 8.913 31.55 6.504 C 29.152 4.096 25.898 2.74 22.504 2.736 Z M 25.706 15.583 C 25.706 16.009 25.875 16.417 26.175 16.718 C 26.475 17.019 26.882 17.188 27.307 17.188 C 27.732 17.188 28.139 17.019 28.439 16.718 C 28.739 16.417 28.908 16.009 28.908 15.583 C 28.908 13.879 28.233 12.245 27.032 11.041 C 25.831 9.836 24.203 9.159 22.504 9.159 C 22.08 9.159 21.672 9.329 21.372 9.63 C 21.072 9.931 20.903 10.339 20.903 10.765 C 20.903 11.191 21.072 11.6 21.372 11.901 C 21.672 12.202 22.08 12.371 22.504 12.371 C 23.353 12.371 24.168 12.709 24.768 13.312 C 25.369 13.914 25.706 14.731 25.706 15.583 Z" fill="#ffffff"/>
</svg>